<?xml version="1.0" standalone="no"?>
<!DOCTYPE svg PUBLIC "-//W3C//DTD SVG 20010904//EN"
 "http://www.w3.org/TR/2001/REC-SVG-20010904/DTD/svg10.dtd">
<svg version="1.0" xmlns="http://www.w3.org/2000/svg"
 width="1024.000000pt" height="1024.000000pt" viewBox="0 0 1024.000000 1024.000000"
 preserveAspectRatio="xMidYMid meet">

<g transform="translate(0.000000,1024.000000) scale(0.100000,-0.100000)"
fill="#000000" stroke="none">
<path d="M2995 8990 c-415 -14 -605 -50 -848 -159 -326 -146 -598 -421 -742
-750 -87 -197 -118 -331 -146 -621 -16 -163 -25 -4199 -10 -4520 16 -346 51
-552 121 -716 l19 -44 -124 0 -124 0 26 -62 c163 -403 459 -720 848 -908 229
-111 437 -162 790 -192 221 -19 4409 -19 4640 0 442 37 706 120 1005 317 147
97 350 300 449 450 79 117 175 301 165 316 -3 5 0 9 6 9 6 0 8 5 5 10 -3 5 -1
10 6 10 7 0 9 3 6 6 -3 4 -2 15 4 25 9 18 4 19 -112 19 -111 0 -121 1 -114 18
58 141 93 287 117 492 19 165 19 4648 0 4820 -45 408 -145 665 -359 921 -179
216 -416 374 -701 469 -118 39 -237 60 -452 81 -135 14 -4116 21 -4475 9z m95
-1514 l425 -235 0 -116 0 -116 -425 -235 c-234 -129 -458 -253 -497 -275 l-73
-40 0 145 0 146 362 182 c199 101 362 188 362 193 1 6 -162 92 -361 193 l-363
182 0 145 0 146 73 -40 c39 -22 263 -146 497 -275z m1920 -1311 l0 -115 -575
0 -575 0 0 115 0 115 575 0 575 0 0 -115z"/>
</g>
</svg>
